# xmcd
#
# Track frame offsets:
#	150
#	14561
#	28876
#	50116
#	66469
#	73258
#	91683
#	115494
#	134182
#	153099
#	170130
#
# Disc length: 2555 seconds
#
# Revision: 1
# Processed by: cddbd v1.5.2PL0 Copyright (c) Steve Scherf et al.
# Submitted via: audiograbber 1.83.01
#
DISCID=ab09f90b
DTITLE=Love Canon - Greatest Hits Vol. 3
DYEAR=2012
DGENRE=Country
TTITLE0=Danger Zone
TTITLE1=Good Ol' Boys
TTITLE2=Down Under
TTITLE3=The Way It Is
TTITLE4=Hide Head Blues
TTITLE5=Maniac
TTITLE6=Touch of Grey (Live)
TTITLE7=Runnin' Down a Dream
TTITLE8=Crazy Train
TTITLE9=Talking In Your Sleep
TTITLE10=Steppin Out
EXTD=
EXTT0=
EXTT1=
EXTT2=
EXTT3=
EXTT4=
EXTT5=
EXTT6=
EXTT7=
EXTT8=
EXTT9=
EXTT10=
PLAYORDER=
